<?xml version="1.0" standalone="no"?>
<!DOCTYPE svg PUBLIC "-//W3C//DTD SVG 20010904//EN" "http://www.w3.org/TR/2001/REC-SVG-20010904/DTD/svg10.dtd">
<svg version="1.0" xmlns="http://www.w3.org/2000/svg" width="700.000000pt" height="700.000000pt"
    viewBox="0 0 700.000000 700.000000" preserveAspectRatio="xMidYMid meet">
    <g transform="translate(0.000000,700.000000) scale(0.100000,-0.100000)" fill="#000000" stroke="none">
        <path d="M5570 6983 c-25 -8 -72 -23 -105 -33 -106 -32 -586 -179 -715 -220
-69 -21 -179 -55 -245 -75 -66 -21 -151 -47 -190 -60 l-70 -22 45 -12 c75 -19
345 -109 392 -130 24 -10 77 -34 118 -52 232 -104 534 -292 702 -437 226 -194
395 -372 531 -557 20 -27 40 -54 45 -60 15 -20 82 -123 131 -204 51 -82 172
-319 202 -396 9 -22 25 -62 37 -90 27 -66 99 -295 108 -340 3 -20 10 -33 14
-28 4 4 22 55 40 113 17 58 46 152 65 210 18 58 43 139 55 180 12 41 28 93 36
115 7 22 41 130 75 240 33 110 83 272 110 360 l49 160 -95 140 c-277 411 -600
741 -1032 1054 -63 46 -245 161 -252 160 -3 -1 -26 -8 -51 -16z" />
        <path d="M1250 6898 c-453 -305 -827 -677 -1127 -1120 -38 -57 -82 -123 -96
-148 l-26 -46 20 -64 c12 -36 25 -78 29 -95 11 -40 31 -105 140 -455 51 -162
98 -315 105 -340 8 -25 25 -81 39 -125 13 -44 35 -114 47 -155 27 -92 35 -102
44 -58 14 61 82 272 120 368 156 394 397 762 690 1055 130 129 172 169 250
230 28 22 52 42 55 45 13 14 222 161 262 185 334 197 511 274 871 380 32 10
56 19 54 21 -2 2 -64 22 -138 45 -74 22 -168 51 -209 64 -74 23 -168 52 -700
216 -146 44 -272 83 -280 85 -8 2 -76 -37 -150 -88z" />
        <path d="M3427 5824 c-1 -1 -46 -4 -101 -8 -54 -3 -108 -8 -120 -11 -11 -2
-39 -6 -61 -9 -22 -3 -51 -8 -65 -11 -14 -2 -50 -10 -80 -16 -194 -38 -474
-146 -655 -253 -62 -36 -89 -53 -159 -99 -117 -77 -358 -295 -466 -422 -279
-326 -467 -756 -525 -1200 -27 -204 -22 -503 10 -660 3 -11 7 -36 9 -55 10
-64 55 -237 87 -332 118 -346 298 -629 576 -906 84 -83 157 -152 162 -152 5 0
16 -6 23 -13 26 -27 156 -116 246 -171 262 -159 521 -249 884 -310 105 -18
334 -24 478 -13 309 23 573 95 855 233 50 24 115 58 145 76 55 32 241 155 250
167 3 3 28 24 55 45 87 69 298 287 373 389 163 217 293 465 362 692 12 39 25
81 30 95 7 21 28 107 46 195 16 77 36 291 37 400 1 141 -10 293 -27 380 -2 11
-7 40 -11 65 -13 91 -82 336 -106 382 -5 10 -9 22 -9 28 0 25 -119 270 -182
373 -129 212 -356 471 -541 616 -258 201 -550 348 -857 430 -64 17 -113 26
-286 56 -61 10 -368 26 -377 19z" />
        <path d="M407 2730 c-3 -8 -24 -76 -47 -150 -55 -177 -122 -395 -170 -550 -21
-69 -59 -192 -85 -275 -26 -82 -60 -192 -76 -244 l-30 -94 48 -79 c204 -335
531 -706 879 -998 69 -58 244 -185 349 -255 l114 -74 193 58 c106 33 261 80
343 106 83 26 170 53 195 60 91 26 604 186 608 189 3 4 -9 8 -138 45 -374 108
-772 317 -1080 565 -140 113 -346 312 -425 411 -22 28 -43 52 -46 55 -21 17
-161 211 -224 311 -170 268 -289 540 -388 884 -8 30 -16 44 -20 35z" />
        <path d="M6550 2683 c-7 -32 -33 -116 -57 -188 -163 -475 -406 -868 -753
-1216 -155 -155 -207 -200 -367 -320 -225 -168 -495 -315 -773 -422 -66 -25
-230 -77 -309 -97 -48 -13 -48 -18 1 -30 18 -4 276 -83 573 -175 297 -92 589
-182 649 -200 87 -27 114 -31 130 -23 101 53 402 271 541 391 72 63 367 355
420 417 112 130 355 456 355 476 0 2 9 17 20 32 l20 27 -91 295 c-50 162 -102
331 -116 375 -13 44 -26 87 -28 95 -2 8 -9 29 -14 45 -6 17 -23 68 -37 115
-14 47 -44 144 -66 215 -22 72 -41 135 -42 140 -5 24 -29 91 -36 98 -3 4 -12
-18 -20 -50z" />
    </g>
</svg>
