<?xml version="1.0" standalone="no"?>
<!DOCTYPE svg PUBLIC "-//W3C//DTD SVG 20010904//EN"
 "http://www.w3.org/TR/2001/REC-SVG-20010904/DTD/svg10.dtd">
<svg version="1.0" xmlns="http://www.w3.org/2000/svg"
 width="686.000000pt" height="686.000000pt" viewBox="0 0 686.000000 686.000000"
 preserveAspectRatio="xMidYMid meet">

<g transform="translate(0.000000,686.000000) scale(0.100000,-0.100000)"
fill="#000000" stroke="none">
<path d="M3053 6845 c-691 -79 -1327 -354 -1859 -806 -122 -104 -368 -361
-468 -489 -146 -187 -260 -371 -371 -595 -178 -360 -274 -672 -332 -1078 -25
-175 -25 -719 0 -894 57 -405 154 -718 332 -1078 483 -977 1389 -1660 2461
-1855 370 -67 858 -67 1228 0 923 168 1731 701 2251 1485 289 436 465 906 542
1448 25 175 25 719 0 894 -58 406 -154 718 -332 1078 -169 341 -347 594 -610
864 -302 310 -564 501 -950 691 -346 171 -667 270 -1057 326 -157 22 -669 28
-835 9z m1297 -3415 l0 -1840 -280 0 -280 0 -2 784 c-2 431 -6 788 -10 792 -4
4 -25 -8 -46 -27 -22 -19 -76 -63 -122 -99 -352 -276 -447 -349 -581 -455 -85
-66 -168 -131 -186 -145 -192 -148 -292 -226 -385 -301 -61 -49 -117 -89 -124
-89 -7 0 -16 9 -19 20 -3 11 -12 26 -18 32 -7 7 -33 40 -59 73 -26 33 -92 117
-147 187 -96 121 -112 148 -92 148 5 0 66 46 137 103 71 56 163 128 204 159
41 31 125 95 185 142 217 170 401 312 490 380 155 118 208 159 271 211 33 28
69 55 80 62 19 11 19 12 -2 27 -11 8 -41 31 -65 51 -66 54 -71 58 -108 85 -19
13 -103 78 -187 144 -148 116 -268 210 -418 325 -39 30 -73 57 -76 61 -5 6
-164 127 -312 237 -49 36 -88 71 -88 78 0 7 7 18 16 26 9 7 47 54 85 103 38
50 92 120 120 156 28 36 67 86 86 113 19 26 38 47 42 47 5 0 21 -11 37 -25 26
-23 84 -69 272 -214 56 -43 221 -173 458 -360 66 -53 158 -125 204 -161 180
-139 296 -233 320 -258 l25 -26 6 29 c4 17 7 308 8 648 l1 617 280 0 280 0 0
-1840z"/>
</g>
</svg>
